<?xml version="1.0" encoding="utf-8"?>
<!-- Generator: Adobe Illustrator 25.1.0, SVG Export Plug-In . SVG Version: 6.00 Build 0)  -->
<svg version="1.1" id="Layer_1" xmlns="http://www.w3.org/2000/svg" xmlns:xlink="http://www.w3.org/1999/xlink" x="0px" y="0px"
	 viewBox="0 0 446 115" style="enable-background:new 0 0 446 115;" xml:space="preserve">
<style type="text/css">
	.st0{fill:#4AB19A;}
	.st1{font-family:'Aerotis';}
	.st2{font-size:68.6411px;}
</style>
<g id="wEKLeO_1_">
</g>
<g id="group">
	<path id="bezier" class="st0" d="M78.7-110.5c0-3.5-0.5-7.3-1.8-10.7c-1.1-3.1-2.8-6.1-5-8.7c-5-5.5-13.2-9-20.8-9
		c-12.8-0.1-25.8,5.8-35.8,13.7c-3.8,3-7.3,6.5-9.8,10.7c-1.6,2.6-2.7,5.5-2.7,8.6c0,2.8,0.5,5.9,2.2,8.4c1.5,2.6,3.9,4.9,6.6,6.4
		c3.7,2,7.9,3.1,12.1,3.6c6.1,0.9,12.5,0.7,18.6-0.3c3.4-0.5,6.6-1.1,9.8-2.3c2.2-0.9,4.7-2,5.7-4.1c0.1-0.3,0.1-0.7,0-0.9
		c-0.3-0.3-0.7-0.3-0.9-0.4c-1.2-0.1-2.6-0.3-3.8-0.1c-2,0.4-3.9,1.2-5.8,1.6c-3.9,0.8-7.9,1.4-11.9,1.6c-4.3,0.1-8.8,0-13.3-0.9
		c-2.6-0.4-5.3-1.2-7.7-2.7c-1.8-1.1-3.5-2.4-4.6-4.3c-0.9-1.6-1.4-3.6-1.4-5.5c0-2.8,1.5-5.5,3.1-7.8c2.3-3.2,5.4-6.1,8.6-8.5
		c9-6.6,20.1-11.6,31.2-11.8c6.2,0,13,2.7,17.4,7.3c3.8,4.3,5.7,10.5,5.7,16.2c0,6.2-2,12.4-4.7,17.8C64.2-82,55.6-72.2,45-66.8
		c-5.4,2.8-11.8,4.5-18,4.6c-6.1,0-12.5-1.8-17.9-4.9c-3.1-1.8-6.2-5-6.4-8.5c0-0.8,0.3-1.6,0.5-2.3c0.3-0.5,0.5-1.1,0.9-1.6
		l0.4-0.8c0.3-0.5,0.9-1.4,0.4-1.5c-0.3-0.3-0.7-0.1-1.1,0c-0.7,0.3-1.2,0.5-1.8,1.1C0.8-79.6,0-77.4,0-75.5c0,1.5,0.4,3.1,1.1,4.6
		c1.2,2.3,3.4,4.3,5.6,5.8C12.5-61.1,20-59,27-58.9c7.2,0,14.7-1.9,20.9-5.3c11.5-6.2,20.8-17,26.3-28.8
		C76.8-98.4,78.6-104.4,78.7-110.5z"/>
	<path id="bezier2" class="st0" d="M93.2-135.7c-0.1-0.4-0.4-0.5-0.8-0.7c-0.4,0-0.7-0.1-1.1-0.1c-0.7,0-1.4-0.1-1.8,0.3
		c-0.7,0.7-0.7,1.8-0.8,2.7c-0.3,1.5-0.4,3.1-0.5,4.7c-0.5,4.7-1.2,9.6-1.4,14.3c0.1,0.5,0.9,0.5,1.4,0.5c0.3,0,0.5,0,0.7-0.1
		c0-0.1,0-0.4,0-0.5l0.4-1.4l0.8-3.8c0.9-3.6,1.6-7.4,2.3-11.1c0.3-1.1,0.4-2.2,0.5-3.1C93.1-134.6,93.4-135.1,93.2-135.7z"/>
	<path id="bezier3" class="st0" d="M141.8-66.3c0.1-0.3,0.3-1.1-0.1-1.1c-0.4-0.1-0.8,0.4-1.2,0.7c-0.8,0.5-1.5,1.4-2.2,2.2
		c-1.5,1.6-3.9,2.8-6.1,2.8c-1.8,0-3.7-0.8-4.6-2.3c-1.5-2.3-1.6-5.3-1.6-8c0.1-2.7,0.5-5.3,0.4-8c0-1.9-0.3-4.2-1.8-5.4
		c-0.7-0.5-1.9-0.5-2.6,0c-1.4,0.9-1.9,2.7-2.6,4.2c-1.6,3.5-2.8,7-4.2,10.5c-0.5,1.4-1.1,2.6-1.8,3.9c-0.3,0.5-0.5,1.1-0.8,1.6
		l-0.3,0.4c0-0.1,0-0.3-0.1-0.4c-0.1-0.9-0.1-2-0.1-3c0.1-2.7,0.5-5.3,0.4-8c0-2.7-0.4-5.7-2.2-7.7c-0.5-0.7-2-0.8-2.8-0.4
		c-1.5,0.9-2.2,2.7-3.1,4.2c-2,3.9-3.7,8.1-5.4,12.3c-0.4,0.9-0.8,1.8-1.2,2.7c-0.4,0.5-0.7,1.1-1.1,1.5c-0.1,0.1-0.1,0.1-0.3,0.3
		c-0.3-1.1-0.1-2.4-0.1-3.7c0.1-3.4,0.5-6.9,0.5-10.3c0.1-2.2-0.3-4.3-1.2-6.1c-0.7-0.9-1.6-1.8-2.8-1.8c-0.9,0-0.7,0.9-0.9,1.9
		c1.4,1.8,1.5,2,1.5,2c0.4,1.2,0.5,2.6,0.5,3.9c-0.1,3.8-0.8,7.6-0.8,11.3c0,1.6,0,3.2,0.5,4.7c0.4,0.8,1.2,1.6,2,1.8
		c1.4,0.1,2.7-0.9,3.7-1.9c1.2-1.5,2.2-3.4,3-5.1c1.4-3.3,2.7-6.6,4.3-9.7c0.5-1.4,1.2-2.6,1.9-3.8c0.4,1.2,0.5,2.6,0.5,3.9
		c0,3.4-0.5,6.8-0.3,10.1c0.1,1.5,0.3,3,1.1,4.1c0.5,0.7,1.5,1.2,2.3,1.2c1.5,0,2.7-1.6,3.5-2.8c1.1-1.9,1.9-4.1,2.7-6.1
		c1.2-3.1,2.2-6.3,3.4-9.5c0.4-0.9,0.8-1.9,1.4-2.8l0.1-0.3c0,0.1,0,0.3,0.1,0.4c0.1,0.9,0.1,1.8,0.1,2.7c0,2.3-0.3,4.6-0.1,6.9
		c0,3.4,0.4,7,2.4,9.7c1.5,1.9,4.1,2.8,6.4,2.7c3.3,0,6.6-2.2,8.6-4.9c0.3-0.4,0.5-0.8,0.8-1.2C141.5-65.9,141.7-66.1,141.8-66.3z"
		/>
	<path id="bezier4" class="st0" d="M242.9-124c0-1.9-0.7-3.9-1.6-5.5c-1.5-2.3-3.9-4.2-6.4-5.4c-6.5-3.4-14.2-4.2-21.6-4.2
		c-13.8,0-28,2.4-40.7,7.7c-5.3,2.2-10.9,4.7-14.8,8.9c-2.3,2.3-4.2,5.7-4.2,9.1c0,3.7,2.4,7,5.2,9.5c4.1,3.5,9,5.9,13.8,8.1
		c12.8,5.5,26.2,9.5,39.4,14.1c4.6,1.6,9.2,3.4,13.7,5.7c1.4,0.8,2.8,1.6,4.1,2.7c0.8,0.7,1.8,1.5,1.8,2.4c0,1.4-1.1,2.4-2.2,3.2
		c-1.6,1.2-3.5,2.2-5.6,3c-5.4,2.3-11.4,3.5-17.2,3.5c-13.3,0-26.6-4.6-38-11.3c-0.7-0.4-1.4-0.8-2.2-1.2c-0.3-0.1-0.7-0.3-1-0.4
		c-0.4-0.1-0.7-0.4-1.1-0.4c-0.3,0-0.7,0-0.7,0.1c-0.1,0.7,0.5,1.4,0.9,1.9c0.8,1.1,2,2,3.3,2.7c2.8,1.8,5.7,3.2,8.8,4.7
		c9.2,4.3,19.5,7.2,29.9,7.2c6.9,0.1,14-1.4,20.2-4.1c2.6-1.1,5.1-2.6,6.9-4.7c0.9-1.1,1.6-2.6,1.6-4.2c0-3-3.1-5.5-5.7-7.3
		c-3.5-2.3-7.6-3.9-11.5-5.5c-13-5.3-26.7-9.2-39.8-14.6c-4.6-2-9.2-4.2-13.4-6.9c-1.8-1.2-3.4-2.4-4.6-4.1
		c-0.9-1.1-1.8-2.6-1.8-4.1c0.1-3,2.7-5.7,5.1-7.6c3.8-2.8,8.4-4.9,12.9-6.3c11.8-4.2,24.4-6.4,36.8-6.4c5.6,0,11.4,0.5,16.6,2.6
		c2.2,0.7,4.2,1.8,5.8,3.4c0.9,1.1,1.8,2.4,1.8,3.8c0,1.1-0.7,2.2-1.4,3c-1.1,1.5-2.6,2.6-4.2,3.5c-2,1.2-4.2,1.9-6.5,2.4
		c-1.4,0.3-2.8,0.3-4.2,0.7c-0.3,0.1-0.7,0.3-0.7,0.7c-0.1,0.3,0,0.7,0.1,0.9c0.7,1.2,2,2.2,3.5,2.4c1.6,0.4,3.5-0.1,5.2-0.5
		c4.2-1.1,8.4-3.4,11.1-6.8C241.8-119.4,242.9-121.7,242.9-124z"/>
	<path id="bezier5" class="st0" d="M267.5-78c0-0.3,0-0.7-0.1-0.8c-0.1-0.1-0.3-0.3-0.5-0.1c-1.1,0.1-1.8,1.4-2.3,2.3
		c-0.7,1.2-1.4,2.4-2,3.6c-1.8,2.7-3.9,5.1-6.5,7c-1.9,1.4-3.8,1.9-6.2,1.8c-2.7,0-5.7-0.9-7.6-2.8c2.6-2.2,4.9-4.6,6.8-7.3
		c2.3-3.4,4.5-7,5.3-11.1c0.1-1.2-0.3-2.7-1.1-3.7c-1.2-1.6-3.5-2.7-5.6-2.7c-2.6,0-5,1.8-6.8,3.7c-3.1,3.5-5.1,8.4-5.1,13.1
		c0,8.4,5.6,14.3,14.1,14.2c3.7-0.1,7.2-1.9,9.9-4.3c3.3-3.2,5.6-7.6,7.5-11.8C267.2-77.3,267.3-77.6,267.5-78z M250.4-86.1
		c-0.5,3.9-2.7,7.6-5,10.8c-1.4,2.2-3,4.1-4.7,5.8c-0.8-1.6-1.2-3.6-1.1-5.5c0-3.2,1.4-6.5,3.1-9.2c1.2-1.6,2.8-3.6,4.9-3.8
		c0.8,0,1.6,0.4,2.2,0.8C250.1-86.9,250.5-86.5,250.4-86.1z"/>
	<path id="bezier6" class="st0" d="M299.9-75.7c-0.7-0.5-1.4,0-2.2,1.4c-2.2,3.7-6.6,9.6-11.7,9.3c-1.4-0.1-2.7-0.7-3.5-1.6
		c-1.2-1.5-1.5-3.7-1.5-5.5c-0.1-1.4,0-2.8,0.3-4.2c0-0.5,0.3-1.2,0.1-1.9c0-0.3-0.4-0.4-0.7-0.5l0,0c0-0.3-0.1-0.4-0.4-0.5
		c-0.1,0-0.5,0-0.8,0.1c-0.5-0.1-1.4-0.3-1.8,0.3c-0.5,0.8-0.7,1.8-0.8,2.8c-0.3,1.2-0.3,2.4-0.3,3.8c-0.9,2-2.3,3.9-3.8,5.5
		c-1.2,1.4-2.8,3.1-4.7,3c-1.2,0-2-1.4-2.4-2.4c-0.7-1.8-0.8-3.6-0.8-5.5c0.1-3.9,1.6-7.8,3.9-10.9c1.4-1.9,3.3-4.2,5.6-4.1
		c0.9,0,2.3,0,2.7,0.7c0.5,0.9-0.1,2.3,0.7,3c0.3,0.3,0.8,0.4,1.2,0.4c0.5,0,1.4,0,1.8-0.4c1.1-1.4,0.8-3.5,0.1-5
		c-1.2-2-4.1-3-6.5-3c-2.8,0-5.8,1.9-7.6,4.2c-3.4,4.2-5.6,9.7-5.6,15.1c0,3,0.5,6.3,2.3,8.6c1.1,1.5,2.8,2.6,4.6,2.6
		c3-0.1,5.7-2.6,7.5-5c0.5-0.8,1.2-1.8,1.8-2.6c0.4,1.6,1.4,3.2,2.6,4.5c1.5,1.6,3.9,2.3,6.1,2.3C294.1-61.5,301.7-74.5,299.9-75.7z
		"/>
	<path id="bezier7" class="st0" d="M328.4-67.8c-0.5-0.1-1.2,0.1-1.8,0.4c-0.8,0.5-1.4,1.4-2,1.9c-1.6,1.1-3.7,1.6-5.6,1.6
		c-1.6,0-3.5-1.1-4.5-2.4c-1.2-1.9-1.6-4.2-1.6-6.5c0.1-2.8,0.4-5.7,0.7-8.6c0.1-1.2,0.4-2.6-0.1-3.6c-0.3-0.7-1.2-1.4-2-1.4
		c-0.9,0-1.8,0.7-2.3,1.4c-0.9,0.9-1.5,2.2-2,3.2c-1.5,2.8-2.7,5.8-4.1,8.8c-0.7,1.5-1.4,2.8-2,4.3c-0.4,0.7-0.8,1.2-1.2,1.9
		l-0.3,0.4c-0.1-1.2,0-2.4,0-3.7c0-3,0.4-5.8,0.4-8.8c0-2,0.1-4.2-0.8-5.9c-0.5-0.9-1.8-1.8-2.8-1.8c-1.4,0-0.8,0.7-1.2,2
		c1.5,0.5,1.5,2,1.5,2c0,1.5,0.1,2.6,0,3.6c0,3.7-0.7,7.4-0.5,11.2c0,1.4,0,3,0.8,4.2c0.4,0.8,1.2,1.4,2.2,1.4
		c2.3-0.1,4.1-2.8,5.2-5c1.5-2.7,2.7-5.7,3.9-8.6c0.7-1.5,1.2-2.8,1.9-4.2l0.4-0.9c0,0.3,0,0.5,0,0.8c-0.3,2.4-0.4,4.9-0.3,7.3
		c0,3,0.7,6.2,2.7,8.4c1.5,1.8,3.9,3,6.2,2.8c1.5,0,3.1-0.3,4.5-0.8c1.6-0.8,3-2,4.2-3.4c0.1-0.1,0.3-0.3,0.3-0.4l0.1-0.1
		C328.4-66.8,328.9-67.7,328.4-67.8z"/>
	<path id="bezier8" class="st0" d="M348.6-64.6c0-2.3-1.4-4.1-3-4.1c-1.6,0-2.8,1.8-2.8,4.1c0,2.3,1.2,4.1,2.8,4.1
		C347.3-60.5,348.6-62.3,348.6-64.6z"/>
</g>
<text transform="matrix(0.9697 0 0 1 19.3521 72.8154)" class="st0 st1 st2">I’m Rezuana </text>
<text transform="matrix(1 0 0 1 -383.2407 -4.882812e-04)"><tspan x="0" y="0" style="font-family:'Julietta-Messie-Demo'; font-size:65.5969px;">I</tspan><tspan x="16.2" y="0" class="st1" style="font-size:65.5969px;">’</tspan><tspan x="22.5" y="0" style="font-family:'Julietta-Messie-Demo'; font-size:65.5969px;">m Rezuana </tspan></text>
</svg>
